<svg xmlns="http://www.w3.org/2000/svg" width="32" height="32" viewBox="0 0 32 32">
  <!-- Favicon FloodAlert -->
  <defs>
    <linearGradient id="faviconGradient" x1="0%" y1="0%" x2="100%" y2="100%">
      <stop offset="0%" style="stop-color:#2563eb;stop-opacity:1" />
      <stop offset="100%" style="stop-color:#1d4ed8;stop-opacity:1" />
    </linearGradient>
  </defs>
  
  <!-- Fundo -->
  <rect width="32" height="32" fill="url(#faviconGradient)" rx="6"/>
  
  <!-- Ondas de água simplificadas -->
  <path d="M2 20 Q8 16 14 20 Q20 24 26 20 Q30 18 32 20 L32 30 L2 30 Z" 
        fill="white" opacity="0.9"/>
  <path d="M2 16 Q8 12 14 16 Q20 20 26 16 Q30 14 32 16 L32 18 Q30 16 26 18 Q20 22 14 18 Q8 14 2 18 Z" 
        fill="white" opacity="0.7"/>
  
  <!-- Ícone de alerta -->
  <circle cx="16" cy="8" r="6" fill="#fbbf24"/>
  <circle cx="16" cy="8" r="4" fill="#f59e0b"/>
  <text x="16" y="12" text-anchor="middle" font-family="Arial" font-size="8" font-weight="bold" fill="white">!</text>
</svg>
